<svg width="248" height="82" viewBox="0 0 248 82" fill="none" xmlns="http://www.w3.org/2000/svg">
<g clip-path="url(#clip0_10794_4705)">
<path d="M228.251 0.0002665H19.7603C19.0003 0.0002665 18.2495 0.0002665 17.4915 0.0043665C16.857 0.0084665 16.2276 0.020377 15.587 0.0304015C14.1954 0.0466002 12.807 0.167703 11.434 0.392657C10.0629 0.622508 8.73478 1.05584 7.4945 1.67801C6.25574 2.30543 5.12386 3.12071 4.1399 4.09426C3.15078 5.06507 2.32627 6.1872 1.69808 7.4175C1.06815 8.64534 0.631358 9.96109 0.402784 11.3193C0.172038 12.6758 0.0478707 14.0479 0.0313979 15.4234C0.0121654 16.0519 0.0101344 16.6826 0 17.3112V64.6954C0.0101344 65.3319 0.0121654 65.9486 0.0313979 66.5853C0.0478757 67.9607 0.172043 69.3328 0.402784 70.6892C0.630727 72.0482 1.06755 73.3647 1.69808 74.593C2.32598 75.8193 3.15061 76.9369 4.1399 77.9023C5.12013 78.8802 6.25275 79.696 7.4945 80.3187C8.73477 80.9425 10.0628 81.3784 11.434 81.6118C12.8073 81.835 14.1955 81.9561 15.587 81.9742C16.2276 81.9882 16.857 81.9962 17.4915 81.9962C18.2495 82.0003 19.0004 82.0003 19.7603 82.0003H228.251C228.996 82.0003 229.753 82.0003 230.497 81.9962C231.129 81.9962 231.777 81.9882 232.408 81.9742C233.797 81.9571 235.182 81.8359 236.553 81.6118C237.929 81.3768 239.261 80.941 240.508 80.3187C241.748 79.6957 242.88 78.8799 243.859 77.9023C244.846 76.9331 245.672 75.8164 246.308 74.593C246.934 73.3638 247.366 72.0474 247.591 70.6892C247.822 69.3326 247.951 67.9608 247.976 66.5853C247.984 65.9486 247.984 65.3319 247.984 64.6954C248 63.9506 248 63.21 248 62.4531V19.5493C248 18.7986 248 18.0539 247.984 17.3112C247.984 16.6826 247.984 16.0519 247.976 15.4233C247.951 14.0477 247.822 12.6759 247.591 11.3192C247.366 9.96179 246.933 8.64615 246.308 7.41741C245.029 4.95142 243 2.94412 240.508 1.67782C239.261 1.05718 237.928 0.623959 236.553 0.392473C235.183 0.166527 233.797 0.0453824 232.408 0.0301145C231.777 0.0201105 231.129 0.0080975 230.497 0.0041C229.753 0 228.996 0.0002665 228.251 0.0002665Z" fill="#A6A6A6"/>
<path d="M17.5014 80.2064C16.87 80.2064 16.2538 80.1984 15.6273 80.1845C14.3295 80.1678 13.0347 80.056 11.7536 79.8502C10.559 79.6466 9.40177 79.2681 8.32005 78.727C7.24826 78.1903 6.2707 77.4866 5.42481 76.6429C4.56669 75.8091 3.85226 74.8421 3.30984 73.7801C2.76144 72.7112 2.38192 71.5655 2.18449 70.3828C1.97128 69.1121 1.85593 67.8271 1.83942 66.5391C1.82628 66.1068 1.80908 64.6672 1.80908 64.6672V17.3111C1.80908 17.3111 1.8274 15.8937 1.83953 15.4773C1.85533 14.1913 1.97001 12.9083 2.18258 11.6395C2.38038 10.4537 2.76019 9.30463 3.30889 8.23224C3.84931 7.17098 4.55978 6.20321 5.41273 5.36644C6.26473 4.52172 7.24542 3.81443 8.31904 3.27038C9.39826 2.73099 10.5533 2.3551 11.7455 2.1553C13.0308 1.94736 14.3301 1.83494 15.6324 1.81898L17.5025 1.79395H230.487L232.379 1.81998C233.67 1.83515 234.957 1.94657 236.231 2.15329C237.435 2.35559 238.602 2.73411 239.694 3.27638C241.845 4.37282 243.595 6.10748 244.699 8.23724C245.239 9.30223 245.613 10.4419 245.808 11.6175C246.023 12.8967 246.143 14.1898 246.168 15.4863C246.174 16.0669 246.174 16.6905 246.174 17.3111C246.191 18.0798 246.191 18.8115 246.191 19.5493V62.453C246.191 63.1978 246.191 63.9245 246.174 64.6572C246.174 65.3239 246.174 65.9345 246.166 66.5631C246.142 67.8365 246.024 69.1064 245.812 70.3628C245.619 71.5539 245.241 72.7086 244.693 73.7862C244.147 74.8367 243.436 75.7954 242.588 76.6269C241.741 77.4752 240.762 78.183 239.688 78.7231C238.599 79.2684 237.434 79.6483 236.231 79.8502C234.95 80.0571 233.655 80.1689 232.357 80.1845C231.75 80.1984 231.114 80.2064 230.497 80.2064L228.251 80.2105L17.5014 80.2064Z" fill="black"/>
<path d="M51.3325 41.6172C51.3548 39.9062 51.8142 38.2285 52.6682 36.7403C53.5221 35.2521 54.7427 34.0017 56.2164 33.1055C55.2802 31.7829 54.0451 30.6945 52.6092 29.9267C51.1734 29.1588 49.5763 28.7328 47.9448 28.6823C44.4647 28.3209 41.0908 30.7422 39.3174 30.7422C37.5096 30.7422 34.7791 28.7181 31.8389 28.778C29.937 28.8388 28.0835 29.3858 26.4589 30.3658C24.8344 31.3459 23.4942 32.7254 22.5689 34.3701C18.5607 41.2344 21.5504 51.3225 25.3899 56.8711C27.3109 59.588 29.5559 62.623 32.4936 62.5153C35.3682 62.3974 36.4418 60.7022 39.9118 60.7022C43.3495 60.7022 44.3568 62.5153 47.354 62.4469C50.4386 62.3974 52.3821 59.7179 54.2356 56.9752C55.6159 55.0392 56.6779 52.8996 57.3825 50.6355C55.5904 49.8858 54.0611 48.6308 52.9853 47.0271C51.9094 45.4234 51.3346 43.5419 51.3325 41.6172Z" fill="white"/>
<path d="M45.6713 25.0327C47.3531 23.0356 48.1817 20.4686 47.9811 17.877C45.4116 18.1439 43.038 19.3587 41.3335 21.2792C40.5 22.2174 39.8617 23.3089 39.455 24.4912C39.0483 25.6736 38.8812 26.9237 38.9632 28.17C40.2484 28.1831 41.5198 27.9075 42.6818 27.3641C43.8438 26.8207 44.8659 26.0235 45.6713 25.0327Z" fill="white"/>
<path d="M87.6698 55.6367H77.86L75.5042 62.5174H71.3491L80.6408 37.0605H84.9578L94.2495 62.5174H90.0236L87.6698 55.6367ZM78.876 52.4616H86.6519L82.8186 41.2947H82.7113L78.876 52.4616Z" fill="white"/>
<path d="M114.316 53.2385C114.316 59.0061 111.195 62.7117 106.486 62.7117C105.293 62.7734 104.106 62.5016 103.062 61.9273C102.018 61.353 101.159 60.4995 100.582 59.4645H100.493V68.6575H96.6416V43.9574H100.37V47.0444H100.441C101.044 46.0143 101.918 45.1653 102.97 44.5875C104.022 44.0097 105.212 43.7248 106.415 43.7632C111.177 43.7632 114.316 47.4868 114.316 53.2385ZM110.358 53.2385C110.358 49.4808 108.394 47.0104 105.399 47.0104C102.456 47.0104 100.477 49.5328 100.477 53.2385C100.477 56.9781 102.456 59.4825 105.399 59.4825C108.394 59.4825 110.358 57.0302 110.358 53.2385Z" fill="white"/>
<path d="M134.968 53.2384C134.968 59.0061 131.847 62.7117 127.138 62.7117C125.945 62.7734 124.758 62.5016 123.714 61.9273C122.67 61.353 121.811 60.4995 121.234 59.4645H121.145V68.6574H117.293V43.9574H121.021V47.0444H121.092C121.695 46.0143 122.569 45.1652 123.621 44.5875C124.673 44.0097 125.864 43.7248 127.067 43.7632C131.829 43.7632 134.968 47.4868 134.968 53.2384ZM131.009 53.2384C131.009 49.4808 129.046 47.0103 126.051 47.0103C123.108 47.0103 121.129 49.5328 121.129 53.2384C121.129 56.9781 123.108 59.4825 126.051 59.4825C129.046 59.4825 131.009 57.0301 131.009 53.2384Z" fill="white"/>
<path d="M148.617 55.4242C148.903 57.9486 151.382 59.6062 154.77 59.6062C158.016 59.6062 160.352 57.9486 160.352 55.6723C160.352 53.6964 158.943 52.5133 155.608 51.7025L152.273 50.9077C147.547 49.7786 145.353 47.5924 145.353 44.045C145.353 39.6527 149.223 36.6357 154.717 36.6357C160.156 36.6357 163.884 39.6527 164.009 44.045H160.121C159.888 41.5045 157.765 39.971 154.663 39.971C151.56 39.971 149.437 41.5225 149.437 43.7807C149.437 45.5805 150.793 46.6395 154.11 47.4502L156.946 48.1389C162.226 49.3741 164.42 51.4722 164.42 55.1958C164.42 59.9584 160.585 62.9413 154.485 62.9413C148.777 62.9413 144.924 60.0285 144.675 55.424L148.617 55.4242Z" fill="white"/>
<path d="M172.732 39.5645V43.9567H176.3V46.9737H172.732V57.2057C172.732 58.7952 173.447 59.5359 175.015 59.5359C175.439 59.5286 175.862 59.4992 176.282 59.4478V62.4467C175.577 62.5771 174.86 62.6361 174.143 62.6229C170.344 62.6229 168.862 61.2115 168.862 57.612V46.9737H166.134V43.9567H168.862V39.5645H172.732Z" fill="white"/>
<path d="M178.367 53.2378C178.367 47.3981 181.844 43.7285 187.266 43.7285C192.706 43.7285 196.167 47.398 196.167 53.2378C196.167 59.0935 192.724 62.7471 187.266 62.7471C181.809 62.7471 178.367 59.0935 178.367 53.2378ZM192.243 53.2378C192.243 49.2319 190.387 46.8676 187.266 46.8676C184.145 46.8676 182.291 49.2499 182.291 53.2378C182.291 57.2597 184.145 59.606 187.266 59.606C190.387 59.606 192.243 57.2597 192.243 53.2378Z" fill="white"/>
<path d="M199.342 43.9572H203.016V47.1163H203.105C203.353 46.1296 203.938 45.2577 204.76 44.647C205.581 44.0364 206.591 43.7242 207.618 43.763C208.062 43.7615 208.505 43.8091 208.938 43.9051V47.4686C208.377 47.2993 207.793 47.2215 207.207 47.2384C206.648 47.2159 206.09 47.3135 205.572 47.5244C205.054 47.7354 204.589 48.0546 204.207 48.4603C203.826 48.866 203.538 49.3485 203.363 49.8746C203.188 50.4008 203.13 50.9582 203.194 51.5085V62.5173H199.342L199.342 43.9572Z" fill="white"/>
<path d="M226.695 57.0655C226.177 60.4348 222.86 62.7471 218.616 62.7471C213.158 62.7471 209.77 59.1295 209.77 53.3259C209.77 47.5042 213.176 43.7285 218.454 43.7285C223.645 43.7285 226.91 47.2559 226.91 52.8834V54.1887H213.657V54.4189C213.596 55.102 213.683 55.7901 213.911 56.4376C214.139 57.0851 214.504 57.6771 214.982 58.1743C215.459 58.6715 216.038 59.0626 216.68 59.3215C217.322 59.5804 218.012 59.7013 218.705 59.6761C219.615 59.7604 220.529 59.5519 221.309 59.0816C222.09 58.6112 222.696 57.9041 223.038 57.0655L226.695 57.0655ZM213.676 51.5261H223.056C223.091 50.9119 222.997 50.2973 222.78 49.7209C222.563 49.1444 222.228 48.6185 221.796 48.1762C221.364 47.7338 220.844 47.3846 220.269 47.1505C219.694 46.9164 219.076 46.8023 218.454 46.8155C217.827 46.8118 217.205 46.931 216.625 47.1662C216.044 47.4015 215.517 47.7481 215.073 48.186C214.628 48.624 214.276 49.1446 214.036 49.7179C213.797 50.2912 213.674 50.9057 213.676 51.5261Z" fill="white"/>
<path d="M78.3935 17.8986C79.2009 17.8413 80.0112 17.962 80.7658 18.2519C81.5204 18.5419 82.2006 18.9939 82.7572 19.5753C83.3138 20.1567 83.7331 20.8531 83.9847 21.6142C84.2363 22.3753 84.314 23.1822 84.2122 23.9766C84.2122 27.8844 82.077 30.1307 78.3935 30.1307H73.9268V17.8986H78.3935ZM75.8474 28.4008H78.1789C78.7559 28.4349 79.3333 28.3413 79.8692 28.1269C80.405 27.9124 80.8857 27.5825 81.2763 27.1611C81.667 26.7397 81.9577 26.2374 82.1274 25.6908C82.297 25.1442 82.3413 24.5671 82.2571 24.0015C82.3352 23.4381 82.2864 22.8646 82.1142 22.322C81.9419 21.7794 81.6505 21.2813 81.2607 20.8632C80.8709 20.4452 80.3925 20.1176 79.8597 19.9039C79.327 19.6902 78.753 19.5957 78.1789 19.6272H75.8474V28.4008Z" fill="white"/>
<path d="M86.3817 25.5113C86.323 24.9046 86.3931 24.2926 86.5876 23.7143C86.7821 23.1361 87.0966 22.6044 87.511 22.1535C87.9254 21.7025 88.4305 21.3422 88.9939 21.0956C89.5573 20.849 90.1665 20.7217 90.7826 20.7217C91.3987 20.7217 92.008 20.849 92.5714 21.0956C93.1348 21.3422 93.6399 21.7025 94.0542 22.1535C94.4686 22.6044 94.7831 23.1361 94.9776 23.7143C95.1721 24.2926 95.2422 24.9046 95.1836 25.5113C95.2434 26.1185 95.174 26.7314 94.9801 27.3106C94.7861 27.8898 94.4718 28.4224 94.0573 28.8743C93.6428 29.3261 93.1374 29.6872 92.5734 29.9343C92.0094 30.1814 91.3994 30.309 90.7826 30.309C90.1658 30.309 89.5558 30.1814 88.9918 29.9343C88.4279 29.6872 87.9224 29.3261 87.5079 28.8743C87.0935 28.4224 86.7791 27.8898 86.5852 27.3106C86.3912 26.7314 86.3219 26.1185 86.3817 25.5113ZM93.2892 25.5113C93.2892 23.5103 92.3805 22.3402 90.7857 22.3402C89.1848 22.3402 88.2842 23.5103 88.2842 25.5113C88.2842 27.5283 89.1848 28.6894 90.7857 28.6894C92.3805 28.6894 93.2892 27.5202 93.2892 25.5113Z" fill="white"/>
<path d="M106.884 30.1304H104.973L103.044 23.3318H102.899L100.978 30.1304H99.0856L96.5132 20.8994H98.3812L100.053 27.9432H100.191L102.109 20.8994H103.876L105.795 27.9432H105.94L107.604 20.8994H109.446L106.884 30.1304Z" fill="white"/>
<path d="M111.61 20.8992H113.383V22.3656H113.52C113.754 21.8389 114.148 21.3974 114.647 21.1026C115.146 20.8078 115.726 20.6744 116.305 20.721C116.759 20.6872 117.215 20.755 117.639 20.9192C118.063 21.0833 118.445 21.3398 118.755 21.6695C119.065 21.9993 119.296 22.3938 119.431 22.8239C119.567 23.2541 119.602 23.7088 119.535 24.1543V30.1301H117.694V24.6118C117.694 23.1284 117.042 22.3906 115.68 22.3906C115.372 22.3764 115.064 22.4283 114.778 22.5428C114.492 22.6572 114.234 22.8315 114.022 23.0537C113.811 23.2759 113.65 23.5407 113.552 23.8301C113.453 24.1194 113.419 24.4264 113.452 24.7299V30.1302H111.61L111.61 20.8992Z" fill="white"/>
<path d="M122.47 17.2959H124.311V30.1304H122.47V17.2959Z" fill="white"/>
<path d="M126.872 25.5114C126.813 24.9048 126.883 24.2927 127.078 23.7144C127.272 23.1361 127.587 22.6045 128.001 22.1535C128.416 21.7025 128.921 21.3422 129.484 21.0956C130.048 20.849 130.657 20.7217 131.273 20.7217C131.889 20.7217 132.499 20.849 133.062 21.0956C133.626 21.3422 134.131 21.7025 134.545 22.1535C134.96 22.6045 135.274 23.1361 135.469 23.7144C135.663 24.2927 135.733 24.9048 135.675 25.5114C135.734 26.1187 135.665 26.7316 135.471 27.3108C135.277 27.89 134.963 28.4226 134.548 28.8744C134.134 29.3263 133.628 29.6873 133.064 29.9344C132.5 30.1815 131.89 30.3091 131.273 30.3091C130.656 30.3091 130.046 30.1815 129.482 29.9344C128.918 29.6873 128.413 29.3263 127.998 28.8744C127.584 28.4226 127.27 27.89 127.076 27.3108C126.882 26.7316 126.812 26.1187 126.872 25.5114ZM133.779 25.5114C133.779 23.5105 132.871 22.3403 131.276 22.3403C129.675 22.3403 128.774 23.5105 128.774 25.5114C128.774 27.5284 129.675 28.6895 131.276 28.6895C132.871 28.6895 133.779 27.5204 133.779 25.5114Z" fill="white"/>
<path d="M137.614 27.5203C137.614 25.8587 138.865 24.9007 141.085 24.7646L143.613 24.6205V23.8237C143.613 22.8487 142.961 22.2982 141.702 22.2982C140.674 22.2982 139.962 22.6716 139.757 23.3242H137.974C138.162 21.7387 139.67 20.7217 141.787 20.7217C144.127 20.7217 145.446 21.8738 145.446 23.8237V30.1309H143.673V28.8336H143.528C143.232 29.2989 142.816 29.6783 142.324 29.9329C141.832 30.1875 141.28 30.3083 140.724 30.2829C140.333 30.3233 139.937 30.2819 139.562 30.1616C139.188 30.0412 138.843 29.8446 138.549 29.5843C138.256 29.324 138.022 29.0059 137.861 28.6504C137.699 28.2949 137.615 27.9099 137.614 27.5203ZM143.613 26.7315V25.9598L141.334 26.1039C140.049 26.189 139.466 26.6214 139.466 27.4352C139.466 28.266 140.194 28.7495 141.196 28.7495C141.49 28.7789 141.786 28.7496 142.068 28.6633C142.35 28.577 142.611 28.4355 142.837 28.2472C143.062 28.0589 143.247 27.8277 143.38 27.5673C143.514 27.307 143.593 27.0227 143.613 26.7315Z" fill="white"/>
<path d="M147.867 25.5109C147.867 22.5941 149.383 20.7463 151.74 20.7463C152.324 20.7197 152.902 20.8579 153.409 21.1447C153.916 21.4315 154.33 21.855 154.602 22.3658H154.74V17.2959H156.582V30.1304H154.817V28.672H154.671C154.378 29.1793 153.949 29.5976 153.433 29.8815C152.916 30.1654 152.331 30.3041 151.74 30.2825C149.366 30.2826 147.867 28.4348 147.867 25.5109ZM149.769 25.5109C149.769 27.4689 150.702 28.647 152.263 28.647C153.815 28.647 154.774 27.4519 154.774 25.519C154.774 23.5951 153.805 22.3829 152.263 22.3829C150.712 22.3829 149.769 23.569 149.769 25.5109Z" fill="white"/>
<path d="M164.201 25.5113C164.143 24.9046 164.213 24.2926 164.407 23.7143C164.602 23.1361 164.916 22.6044 165.331 22.1535C165.745 21.7025 166.25 21.3422 166.814 21.0956C167.377 20.849 167.986 20.7217 168.602 20.7217C169.219 20.7217 169.828 20.849 170.391 21.0956C170.955 21.3422 171.46 21.7025 171.874 22.1535C172.288 22.6044 172.603 23.1361 172.797 23.7143C172.992 24.2926 173.062 24.9046 173.003 25.5113C173.063 26.1185 172.994 26.7314 172.8 27.3106C172.606 27.8898 172.292 28.4224 171.877 28.8743C171.463 29.3261 170.957 29.6872 170.393 29.9343C169.829 30.1814 169.219 30.309 168.602 30.309C167.986 30.309 167.376 30.1814 166.812 29.9343C166.248 29.6872 165.742 29.3261 165.328 28.8743C164.913 28.4224 164.599 27.8898 164.405 27.3106C164.211 26.7314 164.142 26.1185 164.201 25.5113ZM171.109 25.5113C171.109 23.5103 170.2 22.3402 168.605 22.3402C167.005 22.3402 166.104 23.5103 166.104 25.5113C166.104 27.5283 167.005 28.6894 168.605 28.6894C170.2 28.6894 171.109 27.5202 171.109 25.5113Z" fill="white"/>
<path d="M175.475 20.8992H177.248V22.3656H177.385C177.619 21.8389 178.012 21.3974 178.512 21.1026C179.011 20.8078 179.591 20.6744 180.17 20.721C180.624 20.6872 181.08 20.755 181.504 20.9192C181.928 21.0833 182.309 21.3398 182.62 21.6695C182.93 21.9993 183.161 22.3938 183.296 22.8239C183.431 23.2541 183.467 23.7088 183.4 24.1543V30.1301H181.558V24.6118C181.558 23.1284 180.907 22.3906 179.545 22.3906C179.236 22.3764 178.929 22.4283 178.642 22.5428C178.356 22.6572 178.099 22.8315 177.887 23.0537C177.675 23.2759 177.515 23.5407 177.416 23.8301C177.318 24.1194 177.284 24.4264 177.316 24.7299V30.1302H175.475V20.8992Z" fill="white"/>
<path d="M193.807 18.6016V20.9418H195.829V22.4763H193.807V27.223C193.807 28.1899 194.21 28.6133 195.127 28.6133C195.361 28.6126 195.596 28.5985 195.829 28.5713V30.0888C195.498 30.1473 195.163 30.1784 194.827 30.1818C192.779 30.1818 191.963 29.4691 191.963 27.6894V22.4763H190.482V20.9418H191.963V18.6016H193.807Z" fill="white"/>
<path d="M198.345 17.2959H200.17V22.3829H200.316C200.561 21.8513 200.965 21.4073 201.475 21.1113C201.984 20.8154 202.573 20.682 203.161 20.7293C203.613 20.7049 204.065 20.7795 204.484 20.9477C204.903 21.1159 205.28 21.3735 205.587 21.7022C205.894 22.0309 206.124 22.4226 206.26 22.8493C206.396 23.2759 206.436 23.7271 206.375 24.1706V30.1304H204.532V24.62C204.532 23.1456 203.838 22.3989 202.536 22.3989C202.22 22.3732 201.901 22.4162 201.603 22.525C201.305 22.6337 201.035 22.8056 200.811 23.0285C200.587 23.2514 200.416 23.52 200.308 23.8155C200.2 24.111 200.158 24.4262 200.187 24.7391V30.1304H198.345L198.345 17.2959Z" fill="white"/>
<path d="M217.114 27.6376C216.864 28.4813 216.322 29.211 215.583 29.6992C214.843 30.1874 213.954 30.403 213.07 30.3082C212.456 30.3242 211.845 30.2078 211.28 29.9668C210.715 29.7259 210.21 29.3663 209.8 28.913C209.39 28.4596 209.084 27.9234 208.905 27.3416C208.725 26.7598 208.675 26.1462 208.76 25.5436C208.678 24.939 208.728 24.3242 208.907 23.7406C209.087 23.157 209.39 22.6184 209.798 22.1611C210.206 21.7038 210.709 21.3385 211.272 21.09C211.835 20.8416 212.446 20.7157 213.062 20.7209C215.659 20.7209 217.225 22.4757 217.225 25.3744V26.01H210.636V26.1121C210.607 26.4509 210.65 26.7919 210.762 27.1132C210.874 27.4345 211.053 27.7291 211.287 27.9781C211.521 28.2271 211.805 28.425 212.121 28.559C212.437 28.6931 212.777 28.7604 213.121 28.7566C213.562 28.8089 214.008 28.7305 214.403 28.5312C214.799 28.3319 215.125 28.0209 215.341 27.6375L217.114 27.6376ZM210.636 24.6627H215.349C215.372 24.3529 215.33 24.0417 215.224 23.7491C215.119 23.4566 214.952 23.1891 214.736 22.9639C214.52 22.7387 214.258 22.5607 213.968 22.4414C213.678 22.3222 213.366 22.2643 213.052 22.2714C212.734 22.2674 212.417 22.3266 212.122 22.4454C211.827 22.5641 211.559 22.7402 211.334 22.963C211.109 23.1859 210.931 23.4511 210.811 23.743C210.691 24.0349 210.631 24.3476 210.636 24.6627Z" fill="white"/>
</g>
<defs>
<clipPath id="clip0_10794_4705">
<rect width="248" height="82" fill="white"/>
</clipPath>
</defs>
</svg>
