<svg width="142" height="24" viewBox="0 0 142 24" fill="none" xmlns="http://www.w3.org/2000/svg">
<path d="M42.3045 12.9592C41.4103 12.625 40.6405 12.1974 39.9795 11.6843C39.3186 11.1713 38.8054 10.5649 38.4243 9.85751C38.0433 9.15787 37.8567 8.34163 37.8567 7.41656C37.8567 6.49149 38.0589 5.62083 38.4554 4.84346C38.852 4.06608 39.3886 3.39754 40.0573 2.83784C40.726 2.27813 41.4881 1.85057 42.3512 1.53962C43.2143 1.23645 44.1086 1.08875 45.0494 1.08875C45.726 1.08875 46.3869 1.15871 47.0323 1.29864C47.6855 1.43857 48.292 1.64068 48.8674 1.90499C49.4351 2.17707 49.9561 2.51134 50.4304 2.9078C50.897 3.30426 51.2858 3.77068 51.5968 4.2993C51.6979 4.46254 51.7601 4.62579 51.7757 4.78904C51.7912 4.95229 51.7757 5.11554 51.7445 5.27879C51.7057 5.44203 51.6435 5.58973 51.5657 5.72189C51.4879 5.86181 51.3946 5.97842 51.2935 6.07948C51.1769 6.19608 51.0369 6.28937 50.8736 6.36711C50.7104 6.44484 50.5315 6.48371 50.3449 6.50703C50.1583 6.53035 49.9561 6.50703 49.7539 6.46039C49.544 6.41375 49.3496 6.32046 49.1707 6.18831C48.8519 5.90068 48.5486 5.65192 48.2609 5.44203C47.9732 5.23214 47.6777 5.05335 47.3589 4.92119C47.0479 4.78127 46.7057 4.68021 46.348 4.61024C45.9903 4.54028 45.5704 4.50919 45.1039 4.50919C44.5907 4.50919 44.1008 4.57138 43.642 4.70353C43.1754 4.83568 42.7711 5.03003 42.429 5.27879C42.079 5.52754 41.7991 5.83072 41.5969 6.18831C41.3947 6.5459 41.2859 6.94236 41.2859 7.38547C41.2859 7.89853 41.4181 8.32609 41.6902 8.65258C41.9624 8.98685 42.3201 9.25893 42.7711 9.48437C43.2221 9.70981 43.7509 9.89638 44.3574 10.0441C44.9561 10.1918 45.6015 10.3395 46.278 10.4872C47.079 10.7048 47.8721 10.9692 48.6419 11.2723C49.4195 11.5833 50.1038 11.972 50.7103 12.4539C51.3091 12.9359 51.799 13.5112 52.1645 14.1952C52.5299 14.8716 52.7165 15.6956 52.7165 16.6517C52.7165 17.6079 52.5144 18.5174 52.1178 19.3415C51.7212 20.1655 51.1769 20.8729 50.4771 21.4715C49.785 22.07 48.9685 22.5442 48.0354 22.8863C47.1023 23.2283 46.107 23.3993 45.0417 23.3993C44.1863 23.3993 43.3621 23.2905 42.5767 23.0651C41.7913 22.8396 41.0759 22.5365 40.4228 22.1555C39.7696 21.7746 39.1942 21.3238 38.7043 20.8107C38.2144 20.2976 37.8334 19.7457 37.569 19.1627C37.429 18.8906 37.359 18.6263 37.3435 18.3775C37.3357 18.1288 37.359 17.9111 37.429 17.709C37.499 17.5069 37.6001 17.3358 37.7478 17.1881C37.8878 17.0404 38.0511 16.9161 38.2377 16.8072C38.6576 16.5818 39.062 16.5351 39.4274 16.6673C39.8007 16.8072 40.1817 17.1182 40.5705 17.6157C41.0526 18.3697 41.6825 18.9528 42.4601 19.3648C43.2377 19.7768 44.1397 19.9789 45.1739 19.9789C45.6793 19.9789 46.177 19.9089 46.6668 19.7768C47.1567 19.6369 47.6 19.4347 47.9888 19.1704C48.3776 18.8984 48.6964 18.5719 48.9297 18.1754C49.1707 17.7789 49.2873 17.3358 49.2873 16.8305C49.2873 16.3252 49.1629 15.8744 48.9141 15.5323C48.6653 15.1903 48.3542 14.9027 47.9654 14.685C47.5766 14.4596 47.1412 14.2808 46.6513 14.1486C46.1614 14.0087 45.6793 13.8765 45.205 13.7521C44.163 13.5578 43.1988 13.2935 42.3045 12.9515V12.9592Z" fill="black"/>
<path d="M67.2734 21.5334C67.2734 22.0154 67.1101 22.4119 66.7835 22.7306C66.4569 23.0493 66.0603 23.2125 65.5938 23.2125C65.3683 23.2125 65.1428 23.1737 64.9328 23.0882C64.7229 23.0027 64.5362 22.8783 64.3729 22.7306C64.2096 22.5751 64.0852 22.3963 63.9919 22.202C63.8986 21.9998 63.852 21.7822 63.852 21.5412V13.1611C63.8364 12.7724 63.7664 12.4148 63.6342 12.0883C63.502 11.7618 63.3232 11.482 63.0899 11.241C62.8566 11 62.5845 10.8135 62.2657 10.6813C61.9468 10.5491 61.5969 10.487 61.2159 10.487C60.8349 10.487 60.4616 10.5569 60.0884 10.6968C59.7151 10.8368 59.3808 11.0233 59.0931 11.2643C58.7976 11.5053 58.5565 11.7852 58.3699 12.1117C58.1833 12.4382 58.0822 12.7802 58.0666 13.1456V13.2466C58.0666 13.2466 58.0511 13.2777 58.0666 13.3166C58.0744 13.3477 58.0744 13.3943 58.0666 13.4565V21.5334C58.0666 22.0154 57.9033 22.4119 57.5768 22.7383C57.2502 23.0648 56.8458 23.2281 56.3637 23.2281C56.1382 23.2281 55.9127 23.1892 55.7027 23.1037C55.4928 23.0182 55.3062 22.9016 55.1507 22.7461C54.9951 22.5906 54.8707 22.4118 54.7852 22.2097C54.6919 22.0076 54.6452 21.7822 54.6452 21.5412V8.76896C54.6452 8.52798 54.6919 8.30254 54.7774 8.10042C54.8707 7.89831 54.9951 7.71174 55.1507 7.56404C55.3062 7.40856 55.4928 7.28418 55.695 7.19867C55.8971 7.10539 56.1226 7.05875 56.3559 7.05875C56.7836 7.05875 57.1491 7.19867 57.4446 7.47075C57.74 7.74283 57.9189 8.0771 57.9889 8.47356C58.4554 8.03823 58.9764 7.69619 59.5441 7.43966C60.1117 7.18313 60.726 7.05875 61.3792 7.05875C62.2968 7.05875 63.121 7.23754 63.8675 7.60291C64.6062 7.9605 65.2361 8.45024 65.7493 9.07214C66.418 8.45802 67.1801 7.96827 68.0354 7.60291C68.8986 7.24532 69.7695 7.05875 70.6637 7.05875C71.5579 7.05875 72.3278 7.22199 73.0354 7.54849C73.743 7.87499 74.3573 8.31809 74.8627 8.88557C75.3681 9.45305 75.757 10.1138 76.0291 10.8601C76.3013 11.6141 76.4412 12.4148 76.4412 13.2777V21.5334C76.4412 22.0154 76.2779 22.4119 75.9513 22.7306C75.6248 23.0493 75.2282 23.2125 74.7616 23.2125C74.5361 23.2125 74.3106 23.1737 74.1007 23.0882C73.8907 23.0027 73.7041 22.8783 73.5408 22.7306C73.3775 22.5751 73.2531 22.3963 73.1598 22.202C73.0665 21.9998 73.0198 21.7822 73.0198 21.5412V13.2311C73.0043 12.8424 72.9421 12.477 72.8099 12.1428C72.6854 11.8085 72.5066 11.5131 72.2733 11.2721C72.04 11.0233 71.7601 10.8368 71.4413 10.6968C71.1225 10.5569 70.7648 10.487 70.376 10.487C69.9872 10.487 69.6217 10.5569 69.2562 10.7046C68.883 10.8446 68.5564 11.0389 68.2609 11.2799C67.9654 11.5209 67.7322 11.8007 67.5455 12.1272C67.3667 12.4537 67.2578 12.7958 67.2345 13.1611V21.5412L67.2734 21.5334Z" fill="black"/>
<path d="M78.0196 15.2367C78.0196 14.1095 78.2373 13.0445 78.665 12.0573C79.0927 11.07 79.6837 10.2071 80.4224 9.46083C81.1689 8.71455 82.032 8.13152 83.0273 7.70397C84.0226 7.27641 85.0802 7.05875 86.1999 7.05875C87.3196 7.05875 88.3772 7.26864 89.3569 7.69619C90.3367 8.11597 91.1999 8.699 91.9386 9.43751C92.6773 10.176 93.2605 11.0389 93.6959 12.0184C94.1314 12.9979 94.3569 14.0551 94.3647 15.1745V21.4712C94.3647 21.7122 94.318 21.9377 94.2247 22.1475C94.1314 22.3574 94.007 22.544 93.8515 22.7073C93.6959 22.8705 93.5093 22.9949 93.2916 23.0882C93.0739 23.1815 92.8484 23.2281 92.6073 23.2281C92.1485 23.2281 91.7675 23.0804 91.4642 22.7772C91.161 22.474 90.9821 22.1087 90.9433 21.6733C90.2667 22.2175 89.528 22.6528 88.7271 22.9638C87.9262 23.2747 87.0786 23.4302 86.1921 23.4302C85.0724 23.4302 84.0149 23.2203 83.0195 22.785C82.0242 22.3574 81.1533 21.7744 80.4146 21.0281C79.6681 20.2819 79.0849 19.419 78.6572 18.4317C78.2296 17.4444 78.0118 16.3872 78.0118 15.2523L78.0196 15.2367ZM81.4333 15.2289C81.4333 15.8819 81.5577 16.5038 81.8143 17.0791C82.0631 17.6621 82.4052 18.1596 82.8407 18.595C83.2684 19.0225 83.7738 19.3646 84.357 19.6211C84.9324 19.8698 85.5545 20.002 86.2077 20.002C86.8609 20.002 87.4907 19.8776 88.0739 19.6211C88.6493 19.3723 89.1548 19.0303 89.5902 18.595C90.0179 18.1674 90.36 17.6621 90.6089 17.0791C90.8577 16.496 90.9821 15.8819 90.9821 15.2289C90.9821 14.5759 90.8577 13.9463 90.6089 13.371C90.36 12.7958 90.0257 12.2982 89.5902 11.8629C89.1625 11.4354 88.6571 11.0933 88.0739 10.8446C87.4985 10.5958 86.8764 10.4714 86.2077 10.4714C85.539 10.4714 84.9402 10.5958 84.357 10.8446C83.7816 11.0933 83.2762 11.4276 82.8407 11.8629C82.413 12.2905 82.0709 12.7958 81.8143 13.371C81.5654 13.9463 81.4333 14.5682 81.4333 15.2289Z" fill="black"/>
<path d="M100.539 8.74506C101.262 8.20867 102.047 7.79666 102.91 7.50126C103.766 7.20586 104.683 7.05816 105.655 7.05816L105.725 6.99597C106.285 6.99597 106.721 7.15922 107.032 7.47794C107.343 7.79666 107.498 8.20867 107.498 8.69842C107.498 9.18816 107.327 9.60017 106.985 9.92666C106.643 10.2454 106.223 10.4086 105.733 10.4086H105.663C104.963 10.4086 104.302 10.5408 103.68 10.8129C103.058 11.0849 102.514 11.4503 102.047 11.9245C101.581 12.3987 101.215 12.9429 100.951 13.5803C100.679 14.21 100.546 14.8863 100.546 15.6093V21.5095C100.546 21.9915 100.383 22.3957 100.057 22.7222C99.7299 23.0487 99.3256 23.212 98.8435 23.212C98.618 23.212 98.3925 23.1731 98.1825 23.0876C97.9725 23.0021 97.7859 22.8777 97.6304 22.73C97.4749 22.5745 97.3505 22.3957 97.2649 22.1858C97.1716 21.9759 97.125 21.7583 97.125 21.5173V8.71396C97.125 8.47298 97.1716 8.24754 97.2649 8.04542C97.3583 7.83553 97.4827 7.65674 97.6304 7.50126C97.7859 7.34579 97.9648 7.22141 98.1825 7.12812C98.3925 7.03484 98.618 6.9882 98.859 6.9882C99.1001 6.9882 99.3256 7.03484 99.5277 7.12812C99.7299 7.22141 99.9088 7.34579 100.057 7.50126C100.204 7.65674 100.321 7.83553 100.406 8.03765C100.492 8.24754 100.539 8.4652 100.539 8.70619V8.74506Z" fill="black"/>
<path d="M116.689 7.05853C117.187 7.05853 117.599 7.22177 117.926 7.5405C118.252 7.85922 118.415 8.26345 118.415 8.73765C118.415 9.21185 118.252 9.6394 117.926 9.97367C117.599 10.3079 117.187 10.4712 116.689 10.4712H115.204V21.5254C115.204 22.0074 115.041 22.4116 114.714 22.7304C114.388 23.0491 113.983 23.2123 113.501 23.2123C113.019 23.2123 112.615 23.0491 112.28 22.7304C111.946 22.4116 111.783 22.0074 111.783 21.5254V10.4712H110.546C110.305 10.4712 110.08 10.4245 109.877 10.3313C109.668 10.238 109.489 10.1136 109.333 9.95035C109.178 9.7871 109.053 9.60831 108.96 9.39842C108.867 9.1963 108.82 8.97086 108.82 8.72988C108.82 8.24791 108.983 7.85145 109.318 7.53272C109.652 7.214 110.056 7.05075 110.538 7.05075H111.775V2.89958C111.775 2.41761 111.938 2.02115 112.272 1.69466C112.607 1.37593 113.011 1.21269 113.493 1.21269C113.975 1.21269 114.38 1.37593 114.706 1.69466C115.033 2.01338 115.196 2.41761 115.196 2.89958V7.05853H116.689Z" fill="black"/>
<path d="M123.781 21.51C123.781 21.992 123.618 22.3962 123.291 22.7227C122.964 23.0492 122.56 23.2125 122.078 23.2125C121.853 23.2125 121.627 23.1736 121.417 23.0881C121.207 23.0026 121.02 22.8782 120.865 22.7305C120.709 22.575 120.585 22.3962 120.499 22.1863C120.406 21.9842 120.36 21.7588 120.36 21.5178V8.7378C120.36 8.49681 120.406 8.27137 120.499 8.06926C120.593 7.86714 120.717 7.68057 120.881 7.5251C121.044 7.36962 121.223 7.24524 121.433 7.15196C121.635 7.05867 121.86 7.01203 122.101 7.01203C122.342 7.01203 122.568 7.05867 122.77 7.15196C122.972 7.24524 123.151 7.36962 123.299 7.5251C123.447 7.68057 123.563 7.85937 123.649 8.06926C123.734 8.27915 123.781 8.49681 123.781 8.7378V21.51Z" fill="black"/>
<path d="M129.341 16.7759C129.481 17.2579 129.683 17.701 129.971 18.113C130.25 18.525 130.585 18.8826 130.974 19.178C131.362 19.4734 131.798 19.7066 132.272 19.8698C132.747 20.0331 133.252 20.1186 133.773 20.1186C134.504 20.1186 135.118 20.0098 135.608 19.7843C136.098 19.5589 136.51 19.2635 136.844 18.8981C137.14 18.6727 137.435 18.5328 137.723 18.4939C138.011 18.455 138.283 18.4783 138.547 18.5716C138.726 18.626 138.89 18.7271 139.03 18.8593C139.169 18.9914 139.278 19.1391 139.372 19.2946C139.589 19.6289 139.683 20.002 139.652 20.4218C139.62 20.8416 139.411 21.2147 139.006 21.549C138.742 21.7977 138.446 22.0387 138.112 22.2642C137.778 22.4896 137.397 22.6839 136.969 22.855C136.541 23.026 136.059 23.1581 135.538 23.2592C135.009 23.3525 134.418 23.4069 133.765 23.4069C132.63 23.4069 131.565 23.197 130.569 22.7694C129.574 22.3497 128.703 21.7666 127.957 21.0281C127.21 20.2896 126.627 19.4267 126.191 18.4317C125.756 17.4367 125.538 16.3717 125.538 15.2367C125.538 14.1017 125.756 13.0445 126.191 12.0495C126.627 11.0544 127.218 10.1916 127.957 9.45305C128.695 8.71455 129.574 8.13152 130.569 7.70396C131.565 7.27641 132.63 7.05875 133.765 7.05875C134.9 7.05875 135.942 7.26864 136.938 7.69619C137.925 8.11597 138.796 8.699 139.543 9.42973C140.289 10.1605 140.88 11.0156 141.323 12.0028C141.767 12.9823 141.992 14.0395 142 15.159C142 15.6409 141.844 16.0296 141.526 16.3328C141.207 16.636 140.81 16.7837 140.313 16.7837H129.341V16.7759ZM138.477 13.954C138.353 13.4332 138.151 12.9512 137.871 12.5081C137.591 12.0728 137.249 11.6919 136.837 11.3732C136.432 11.0544 135.966 10.8057 135.453 10.6191C134.939 10.4403 134.395 10.347 133.82 10.347C133.244 10.347 132.708 10.4403 132.194 10.6191C131.681 10.7979 131.23 11.0544 130.826 11.3809C130.429 11.7074 130.087 12.0883 129.815 12.5237C129.543 12.959 129.348 13.441 129.232 13.954H138.477Z" fill="black"/>
<path d="M124.745 2.88405C124.745 4.47766 123.455 5.7681 121.861 5.7681C120.267 5.7681 118.976 4.47766 118.976 2.88405C118.976 1.29044 120.267 0 121.861 0C123.455 0 124.745 1.29044 124.745 2.88405Z" fill="#A024D5"/>
<path d="M4.3035 8.08438C6.47299 8.08438 8.23813 6.31974 8.23813 4.15087C8.23813 1.982 6.47299 0.217368 4.3035 0.217368C2.134 0.217368 0.368862 1.982 0.368862 4.15087C0.368862 6.31974 2.134 8.08438 4.3035 8.08438ZM24.5754 11.4193C23.6423 11.0617 22.5926 11.5359 22.2349 12.4688C20.6175 16.7288 16.4729 19.5973 11.9084 19.5973C8.51029 19.5973 5.35325 18.0658 3.23819 15.3994C2.93493 15.0185 2.50725 14.7776 2.02514 14.7231C1.54303 14.6687 1.0687 14.8009 0.687676 15.104C-0.0976959 15.7259 -0.229887 16.8687 0.39219 17.6461C3.19153 21.1909 7.39055 23.2198 11.9006 23.2198C17.9581 23.2198 23.4712 19.4185 25.6174 13.7514C25.9751 12.8186 25.5008 11.7691 24.5676 11.4193H24.5754ZM16.8228 6.0943H23.1446C24.2333 6.0943 25.1197 5.2081 25.1197 4.11978C25.1197 3.03146 24.2333 2.14525 23.1446 2.14525H16.8228C15.7342 2.14525 14.8477 3.03146 14.8477 4.11978C14.8477 5.2081 15.7342 6.0943 16.8228 6.0943Z" fill="#A024D5"/>
</svg>
