<svg width="94" height="94" viewBox="0 0 94 94" fill="none" xmlns="http://www.w3.org/2000/svg">
<path d="M29.172 0H25.9307V3.24137H29.172V0Z" fill="black"/>
<path d="M32.4142 0H29.1729V3.24137H32.4142V0Z" fill="black"/>
<path d="M35.6554 0H32.4141V3.24137H35.6554V0Z" fill="black"/>
<path d="M51.8615 0H48.6201V3.24137H51.8615V0Z" fill="black"/>
<path d="M55.1037 0H51.8623V3.24137H55.1037V0Z" fill="black"/>
<path d="M58.3449 0H55.1035V3.24137H58.3449V0Z" fill="black"/>
<path d="M35.6554 3.24219H32.4141V6.48356H35.6554V3.24219Z" fill="black"/>
<path d="M38.8966 3.24219H35.6553V6.48356H38.8966V3.24219Z" fill="black"/>
<path d="M42.1379 3.24219H38.8965V6.48356H42.1379V3.24219Z" fill="black"/>
<path d="M45.3791 3.24219H42.1377V6.48356H45.3791V3.24219Z" fill="black"/>
<path d="M48.6203 3.24219H45.3789V6.48356H48.6203V3.24219Z" fill="black"/>
<path d="M55.1037 3.24219H51.8623V6.48356H55.1037V3.24219Z" fill="black"/>
<path d="M58.3449 3.24219H55.1035V6.48356H58.3449V3.24219Z" fill="black"/>
<path d="M68.0685 3.24219H64.8271V6.48356H68.0685V3.24219Z" fill="black"/>
<path d="M29.172 6.48242H25.9307V9.72379H29.172V6.48242Z" fill="black"/>
<path d="M35.6554 6.48242H32.4141V9.72379H35.6554V6.48242Z" fill="black"/>
<path d="M38.8966 6.48242H35.6553V9.72379H38.8966V6.48242Z" fill="black"/>
<path d="M48.6203 6.48242H45.3789V9.72379H48.6203V6.48242Z" fill="black"/>
<path d="M51.8615 6.48242H48.6201V9.72379H51.8615V6.48242Z" fill="black"/>
<path d="M55.1037 6.48242H51.8623V9.72379H55.1037V6.48242Z" fill="black"/>
<path d="M58.3449 6.48242H55.1035V9.72379H58.3449V6.48242Z" fill="black"/>
<path d="M68.0685 6.48242H64.8271V9.72379H68.0685V6.48242Z" fill="black"/>
<path d="M32.4142 9.72461H29.1729V12.966H32.4142V9.72461Z" fill="black"/>
<path d="M35.6554 9.72461H32.4141V12.966H35.6554V9.72461Z" fill="black"/>
<path d="M42.1379 9.72461H38.8965V12.966H42.1379V9.72461Z" fill="black"/>
<path d="M48.6203 9.72461H45.3789V12.966H48.6203V9.72461Z" fill="black"/>
<path d="M58.3449 9.72461H55.1035V12.966H58.3449V9.72461Z" fill="black"/>
<path d="M64.8273 9.72461H61.5859V12.966H64.8273V9.72461Z" fill="black"/>
<path d="M32.4142 12.9668H29.1729V16.2082H32.4142V12.9668Z" fill="black"/>
<path d="M35.6554 12.9668H32.4141V16.2082H35.6554V12.9668Z" fill="black"/>
<path d="M38.8966 12.9668H35.6553V16.2082H38.8966V12.9668Z" fill="black"/>
<path d="M45.3791 12.9668H42.1377V16.2082H45.3791V12.9668Z" fill="black"/>
<path d="M48.6203 12.9668H45.3789V16.2082H48.6203V12.9668Z" fill="black"/>
<path d="M51.8615 12.9668H48.6201V16.2082H51.8615V12.9668Z" fill="black"/>
<path d="M61.5861 12.9668H58.3447V16.2082H61.5861V12.9668Z" fill="black"/>
<path d="M29.172 16.207H25.9307V19.4484H29.172V16.207Z" fill="black"/>
<path d="M35.6554 16.207H32.4141V19.4484H35.6554V16.207Z" fill="black"/>
<path d="M38.8966 16.207H35.6553V19.4484H38.8966V16.207Z" fill="black"/>
<path d="M42.1379 16.207H38.8965V19.4484H42.1379V16.207Z" fill="black"/>
<path d="M51.8615 16.207H48.6201V19.4484H51.8615V16.207Z" fill="black"/>
<path d="M58.3449 16.207H55.1035V19.4484H58.3449V16.207Z" fill="black"/>
<path d="M61.5861 16.207H58.3447V19.4484H61.5861V16.207Z" fill="black"/>
<path d="M29.172 19.4473H25.9307V22.6886H29.172V19.4473Z" fill="black"/>
<path d="M35.6554 19.4473H32.4141V22.6886H35.6554V19.4473Z" fill="black"/>
<path d="M42.1379 19.4473H38.8965V22.6886H42.1379V19.4473Z" fill="black"/>
<path d="M48.6203 19.4473H45.3789V22.6886H48.6203V19.4473Z" fill="black"/>
<path d="M55.1037 19.4473H51.8623V22.6886H55.1037V19.4473Z" fill="black"/>
<path d="M61.5861 19.4473H58.3447V22.6886H61.5861V19.4473Z" fill="black"/>
<path d="M68.0685 19.4473H64.8271V22.6886H68.0685V19.4473Z" fill="black"/>
<path d="M32.4142 22.6895H29.1729V25.9308H32.4142V22.6895Z" fill="black"/>
<path d="M38.8966 22.6895H35.6553V25.9308H38.8966V22.6895Z" fill="black"/>
<path d="M42.1379 22.6895H38.8965V25.9308H42.1379V22.6895Z" fill="black"/>
<path d="M48.6203 22.6895H45.3789V25.9308H48.6203V22.6895Z" fill="black"/>
<path d="M51.8615 22.6895H48.6201V25.9308H51.8615V22.6895Z" fill="black"/>
<path d="M55.1037 22.6895H51.8623V25.9308H55.1037V22.6895Z" fill="black"/>
<path d="M64.8273 22.6895H61.5859V25.9308H64.8273V22.6895Z" fill="black"/>
<path d="M68.0685 22.6895H64.8271V25.9308H68.0685V22.6895Z" fill="black"/>
<path d="M3.24137 25.9297H0V29.1711H3.24137V25.9297Z" fill="black"/>
<path d="M9.72379 25.9297H6.48242V29.1711H9.72379V25.9297Z" fill="black"/>
<path d="M22.6896 25.9297H19.4482V29.1711H22.6896V25.9297Z" fill="black"/>
<path d="M25.9308 25.9297H22.6895V29.1711H25.9308V25.9297Z" fill="black"/>
<path d="M45.3791 25.9297H42.1377V29.1711H45.3791V25.9297Z" fill="black"/>
<path d="M48.6203 25.9297H45.3789V29.1711H48.6203V25.9297Z" fill="black"/>
<path d="M68.0685 25.9297H64.8271V29.1711H68.0685V25.9297Z" fill="black"/>
<path d="M77.7931 25.9297H74.5518V29.1711H77.7931V25.9297Z" fill="black"/>
<path d="M87.5168 25.9297H84.2754V29.1711H87.5168V25.9297Z" fill="black"/>
<path d="M93.9992 25.9297H90.7578V29.1711H93.9992V25.9297Z" fill="black"/>
<path d="M3.24137 29.1719H0V32.4132H3.24137V29.1719Z" fill="black"/>
<path d="M6.48258 29.1719H3.24121V32.4132H6.48258V29.1719Z" fill="black"/>
<path d="M9.72379 29.1719H6.48242V32.4132H9.72379V29.1719Z" fill="black"/>
<path d="M12.966 29.1719H9.72461V32.4132H12.966V29.1719Z" fill="black"/>
<path d="M19.4484 29.1719H16.207V32.4132H19.4484V29.1719Z" fill="black"/>
<path d="M25.9308 29.1719H22.6895V32.4132H25.9308V29.1719Z" fill="black"/>
<path d="M32.4142 29.1719H29.1729V32.4132H32.4142V29.1719Z" fill="black"/>
<path d="M45.3791 29.1719H42.1377V32.4132H45.3791V29.1719Z" fill="black"/>
<path d="M48.6203 29.1719H45.3789V32.4132H48.6203V29.1719Z" fill="black"/>
<path d="M64.8273 29.1719H61.5859V32.4132H64.8273V29.1719Z" fill="black"/>
<path d="M68.0685 29.1719H64.8271V32.4132H68.0685V29.1719Z" fill="black"/>
<path d="M74.5509 29.1719H71.3096V32.4132H74.5509V29.1719Z" fill="black"/>
<path d="M77.7931 29.1719H74.5518V32.4132H77.7931V29.1719Z" fill="black"/>
<path d="M90.758 29.1719H87.5166V32.4132H90.758V29.1719Z" fill="black"/>
<path d="M93.9992 29.1719H90.7578V32.4132H93.9992V29.1719Z" fill="black"/>
<path d="M6.48258 32.4121H3.24121V35.6535H6.48258V32.4121Z" fill="black"/>
<path d="M9.72379 32.4121H6.48242V35.6535H9.72379V32.4121Z" fill="black"/>
<path d="M12.966 32.4121H9.72461V35.6535H12.966V32.4121Z" fill="black"/>
<path d="M16.2072 32.4121H12.9658V35.6535H16.2072V32.4121Z" fill="black"/>
<path d="M22.6896 32.4121H19.4482V35.6535H22.6896V32.4121Z" fill="black"/>
<path d="M25.9308 32.4121H22.6895V35.6535H25.9308V32.4121Z" fill="black"/>
<path d="M38.8966 32.4121H35.6553V35.6535H38.8966V32.4121Z" fill="black"/>
<path d="M42.1379 32.4121H38.8965V35.6535H42.1379V32.4121Z" fill="black"/>
<path d="M51.8615 32.4121H48.6201V35.6535H51.8615V32.4121Z" fill="black"/>
<path d="M61.5861 32.4121H58.3447V35.6535H61.5861V32.4121Z" fill="black"/>
<path d="M64.8273 32.4121H61.5859V35.6535H64.8273V32.4121Z" fill="black"/>
<path d="M77.7931 32.4121H74.5518V35.6535H77.7931V32.4121Z" fill="black"/>
<path d="M84.2756 32.4121H81.0342V35.6535H84.2756V32.4121Z" fill="black"/>
<path d="M87.5168 32.4121H84.2754V35.6535H87.5168V32.4121Z" fill="black"/>
<path d="M93.9992 32.4121H90.7578V35.6535H93.9992V32.4121Z" fill="black"/>
<path d="M3.24137 35.6562H0V38.8976H3.24137V35.6562Z" fill="black"/>
<path d="M16.2072 35.6562H12.9658V38.8976H16.2072V35.6562Z" fill="black"/>
<path d="M25.9308 35.6562H22.6895V38.8976H25.9308V35.6562Z" fill="black"/>
<path d="M29.172 35.6562H25.9307V38.8976H29.172V35.6562Z" fill="black"/>
<path d="M32.4142 35.6562H29.1729V38.8976H32.4142V35.6562Z" fill="black"/>
<path d="M35.6554 35.6562H32.4141V38.8976H35.6554V35.6562Z" fill="black"/>
<path d="M38.8966 35.6562H35.6553V38.8976H38.8966V35.6562Z" fill="black"/>
<path d="M42.1379 35.6562H38.8965V38.8976H42.1379V35.6562Z" fill="black"/>
<path d="M45.3791 35.6562H42.1377V38.8976H45.3791V35.6562Z" fill="black"/>
<path d="M61.5861 35.6562H58.3447V38.8976H61.5861V35.6562Z" fill="black"/>
<path d="M71.3097 35.6562H68.0684V38.8976H71.3097V35.6562Z" fill="black"/>
<path d="M77.7931 35.6562H74.5518V38.8976H77.7931V35.6562Z" fill="black"/>
<path d="M81.0343 35.6562H77.793V38.8976H81.0343V35.6562Z" fill="black"/>
<path d="M84.2756 35.6562H81.0342V38.8976H84.2756V35.6562Z" fill="black"/>
<path d="M16.2072 38.8965H12.9658V42.1379H16.2072V38.8965Z" fill="black"/>
<path d="M19.4484 38.8965H16.207V42.1379H19.4484V38.8965Z" fill="black"/>
<path d="M22.6896 38.8965H19.4482V42.1379H22.6896V38.8965Z" fill="black"/>
<path d="M25.9308 38.8965H22.6895V42.1379H25.9308V38.8965Z" fill="black"/>
<path d="M32.4142 38.8965H29.1729V42.1379H32.4142V38.8965Z" fill="black"/>
<path d="M35.6554 38.8965H32.4141V42.1379H35.6554V38.8965Z" fill="black"/>
<path d="M45.3791 38.8965H42.1377V42.1379H45.3791V38.8965Z" fill="black"/>
<path d="M51.8615 38.8965H48.6201V42.1379H51.8615V38.8965Z" fill="black"/>
<path d="M55.1037 38.8965H51.8623V42.1379H55.1037V38.8965Z" fill="black"/>
<path d="M68.0685 38.8965H64.8271V42.1379H68.0685V38.8965Z" fill="black"/>
<path d="M74.5509 38.8965H71.3096V42.1379H74.5509V38.8965Z" fill="black"/>
<path d="M77.7931 38.8965H74.5518V42.1379H77.7931V38.8965Z" fill="black"/>
<path d="M93.9992 38.8965H90.7578V42.1379H93.9992V38.8965Z" fill="black"/>
<path d="M12.966 42.1387H9.72461V45.38H12.966V42.1387Z" fill="black"/>
<path d="M16.2072 42.1387H12.9658V45.38H16.2072V42.1387Z" fill="black"/>
<path d="M32.4142 42.1387H29.1729V45.38H32.4142V42.1387Z" fill="black"/>
<path d="M38.8966 42.1387H35.6553V45.38H38.8966V42.1387Z" fill="black"/>
<path d="M55.1037 42.1387H51.8623V45.38H55.1037V42.1387Z" fill="black"/>
<path d="M58.3449 42.1387H55.1035V45.38H58.3449V42.1387Z" fill="black"/>
<path d="M64.8273 42.1387H61.5859V45.38H64.8273V42.1387Z" fill="black"/>
<path d="M68.0685 42.1387H64.8271V45.38H68.0685V42.1387Z" fill="black"/>
<path d="M74.5509 42.1387H71.3096V45.38H74.5509V42.1387Z" fill="black"/>
<path d="M90.758 42.1387H87.5166V45.38H90.758V42.1387Z" fill="black"/>
<path d="M93.9992 42.1387H90.7578V45.38H93.9992V42.1387Z" fill="black"/>
<path d="M3.24137 45.3789H0V48.6203H3.24137V45.3789Z" fill="black"/>
<path d="M6.48258 45.3789H3.24121V48.6203H6.48258V45.3789Z" fill="black"/>
<path d="M16.2072 45.3789H12.9658V48.6203H16.2072V45.3789Z" fill="black"/>
<path d="M22.6896 45.3789H19.4482V48.6203H22.6896V45.3789Z" fill="black"/>
<path d="M32.4142 45.3789H29.1729V48.6203H32.4142V45.3789Z" fill="black"/>
<path d="M42.1379 45.3789H38.8965V48.6203H42.1379V45.3789Z" fill="black"/>
<path d="M45.3791 45.3789H42.1377V48.6203H45.3791V45.3789Z" fill="black"/>
<path d="M48.6203 45.3789H45.3789V48.6203H48.6203V45.3789Z" fill="black"/>
<path d="M55.1037 45.3789H51.8623V48.6203H55.1037V45.3789Z" fill="black"/>
<path d="M64.8273 45.3789H61.5859V48.6203H64.8273V45.3789Z" fill="black"/>
<path d="M68.0685 45.3789H64.8271V48.6203H68.0685V45.3789Z" fill="black"/>
<path d="M74.5509 45.3789H71.3096V48.6203H74.5509V45.3789Z" fill="black"/>
<path d="M93.9992 45.3789H90.7578V48.6203H93.9992V45.3789Z" fill="black"/>
<path d="M12.966 48.6211H9.72461V51.8625H12.966V48.6211Z" fill="black"/>
<path d="M19.4484 48.6211H16.207V51.8625H19.4484V48.6211Z" fill="black"/>
<path d="M29.172 48.6211H25.9307V51.8625H29.172V48.6211Z" fill="black"/>
<path d="M48.6203 48.6211H45.3789V51.8625H48.6203V48.6211Z" fill="black"/>
<path d="M51.8615 48.6211H48.6201V51.8625H51.8615V48.6211Z" fill="black"/>
<path d="M55.1037 48.6211H51.8623V51.8625H55.1037V48.6211Z" fill="black"/>
<path d="M61.5861 48.6211H58.3447V51.8625H61.5861V48.6211Z" fill="black"/>
<path d="M68.0685 48.6211H64.8271V51.8625H68.0685V48.6211Z" fill="black"/>
<path d="M71.3097 48.6211H68.0684V51.8625H71.3097V48.6211Z" fill="black"/>
<path d="M77.7931 48.6211H74.5518V51.8625H77.7931V48.6211Z" fill="black"/>
<path d="M3.24137 51.8613H0V55.1027H3.24137V51.8613Z" fill="black"/>
<path d="M6.48258 51.8613H3.24121V55.1027H6.48258V51.8613Z" fill="black"/>
<path d="M9.72379 51.8613H6.48242V55.1027H9.72379V51.8613Z" fill="black"/>
<path d="M16.2072 51.8613H12.9658V55.1027H16.2072V51.8613Z" fill="black"/>
<path d="M19.4484 51.8613H16.207V55.1027H19.4484V51.8613Z" fill="black"/>
<path d="M22.6896 51.8613H19.4482V55.1027H22.6896V51.8613Z" fill="black"/>
<path d="M25.9308 51.8613H22.6895V55.1027H25.9308V51.8613Z" fill="black"/>
<path d="M32.4142 51.8613H29.1729V55.1027H32.4142V51.8613Z" fill="black"/>
<path d="M35.6554 51.8613H32.4141V55.1027H35.6554V51.8613Z" fill="black"/>
<path d="M38.8966 51.8613H35.6553V55.1027H38.8966V51.8613Z" fill="black"/>
<path d="M42.1379 51.8613H38.8965V55.1027H42.1379V51.8613Z" fill="black"/>
<path d="M45.3791 51.8613H42.1377V55.1027H45.3791V51.8613Z" fill="black"/>
<path d="M48.6203 51.8613H45.3789V55.1027H48.6203V51.8613Z" fill="black"/>
<path d="M55.1037 51.8613H51.8623V55.1027H55.1037V51.8613Z" fill="black"/>
<path d="M68.0685 51.8613H64.8271V55.1027H68.0685V51.8613Z" fill="black"/>
<path d="M74.5509 51.8613H71.3096V55.1027H74.5509V51.8613Z" fill="black"/>
<path d="M93.9992 51.8613H90.7578V55.1027H93.9992V51.8613Z" fill="black"/>
<path d="M6.48258 55.1035H3.24121V58.3449H6.48258V55.1035Z" fill="black"/>
<path d="M16.2072 55.1035H12.9658V58.3449H16.2072V55.1035Z" fill="black"/>
<path d="M25.9308 55.1035H22.6895V58.3449H25.9308V55.1035Z" fill="black"/>
<path d="M29.172 55.1035H25.9307V58.3449H29.172V55.1035Z" fill="black"/>
<path d="M32.4142 55.1035H29.1729V58.3449H32.4142V55.1035Z" fill="black"/>
<path d="M38.8966 55.1035H35.6553V58.3449H38.8966V55.1035Z" fill="black"/>
<path d="M45.3791 55.1035H42.1377V58.3449H45.3791V55.1035Z" fill="black"/>
<path d="M48.6203 55.1035H45.3789V58.3449H48.6203V55.1035Z" fill="black"/>
<path d="M58.3449 55.1035H55.1035V58.3449H58.3449V55.1035Z" fill="black"/>
<path d="M64.8273 55.1035H61.5859V58.3449H64.8273V55.1035Z" fill="black"/>
<path d="M68.0685 55.1035H64.8271V58.3449H68.0685V55.1035Z" fill="black"/>
<path d="M74.5509 55.1035H71.3096V58.3449H74.5509V55.1035Z" fill="black"/>
<path d="M77.7931 55.1035H74.5518V58.3449H77.7931V55.1035Z" fill="black"/>
<path d="M87.5168 55.1035H84.2754V58.3449H87.5168V55.1035Z" fill="black"/>
<path d="M90.758 55.1035H87.5166V58.3449H90.758V55.1035Z" fill="black"/>
<path d="M93.9992 55.1035H90.7578V58.3449H93.9992V55.1035Z" fill="black"/>
<path d="M3.24137 58.3438H0V61.5851H3.24137V58.3438Z" fill="black"/>
<path d="M6.48258 58.3438H3.24121V61.5851H6.48258V58.3438Z" fill="black"/>
<path d="M16.2072 58.3438H12.9658V61.5851H16.2072V58.3438Z" fill="black"/>
<path d="M19.4484 58.3438H16.207V61.5851H19.4484V58.3438Z" fill="black"/>
<path d="M22.6896 58.3438H19.4482V61.5851H22.6896V58.3438Z" fill="black"/>
<path d="M25.9308 58.3438H22.6895V61.5851H25.9308V58.3438Z" fill="black"/>
<path d="M32.4142 58.3438H29.1729V61.5851H32.4142V58.3438Z" fill="black"/>
<path d="M35.6554 58.3438H32.4141V61.5851H35.6554V58.3438Z" fill="black"/>
<path d="M38.8966 58.3438H35.6553V61.5851H38.8966V58.3438Z" fill="black"/>
<path d="M51.8615 58.3438H48.6201V61.5851H51.8615V58.3438Z" fill="black"/>
<path d="M55.1037 58.3438H51.8623V61.5851H55.1037V58.3438Z" fill="black"/>
<path d="M58.3449 58.3438H55.1035V61.5851H58.3449V58.3438Z" fill="black"/>
<path d="M64.8273 58.3438H61.5859V61.5851H64.8273V58.3438Z" fill="black"/>
<path d="M84.2756 58.3438H81.0342V61.5851H84.2756V58.3438Z" fill="black"/>
<path d="M93.9992 58.3438H90.7578V61.5851H93.9992V58.3438Z" fill="black"/>
<path d="M16.2072 61.5859H12.9658V64.8273H16.2072V61.5859Z" fill="black"/>
<path d="M19.4484 61.5859H16.207V64.8273H19.4484V61.5859Z" fill="black"/>
<path d="M32.4142 61.5859H29.1729V64.8273H32.4142V61.5859Z" fill="black"/>
<path d="M35.6554 61.5859H32.4141V64.8273H35.6554V61.5859Z" fill="black"/>
<path d="M42.1379 61.5859H38.8965V64.8273H42.1379V61.5859Z" fill="black"/>
<path d="M45.3791 61.5859H42.1377V64.8273H45.3791V61.5859Z" fill="black"/>
<path d="M55.1037 61.5859H51.8623V64.8273H55.1037V61.5859Z" fill="black"/>
<path d="M61.5861 61.5859H58.3447V64.8273H61.5861V61.5859Z" fill="black"/>
<path d="M71.3097 61.5859H68.0684V64.8273H71.3097V61.5859Z" fill="black"/>
<path d="M77.7931 61.5859H74.5518V64.8273H77.7931V61.5859Z" fill="black"/>
<path d="M3.24137 64.8262H0V68.0675H3.24137V64.8262Z" fill="black"/>
<path d="M6.48258 64.8262H3.24121V68.0675H6.48258V64.8262Z" fill="black"/>
<path d="M12.966 64.8262H9.72461V68.0675H12.966V64.8262Z" fill="black"/>
<path d="M16.2072 64.8262H12.9658V68.0675H16.2072V64.8262Z" fill="black"/>
<path d="M22.6896 64.8262H19.4482V68.0675H22.6896V64.8262Z" fill="black"/>
<path d="M25.9308 64.8262H22.6895V68.0675H25.9308V64.8262Z" fill="black"/>
<path d="M35.6554 64.8262H32.4141V68.0675H35.6554V64.8262Z" fill="black"/>
<path d="M38.8966 64.8262H35.6553V68.0675H38.8966V64.8262Z" fill="black"/>
<path d="M45.3791 64.8262H42.1377V68.0675H45.3791V64.8262Z" fill="black"/>
<path d="M51.8615 64.8262H48.6201V68.0675H51.8615V64.8262Z" fill="black"/>
<path d="M61.5861 64.8262H58.3447V68.0675H61.5861V64.8262Z" fill="black"/>
<path d="M68.0685 64.8262H64.8271V68.0675H68.0685V64.8262Z" fill="black"/>
<path d="M71.3097 64.8262H68.0684V68.0675H71.3097V64.8262Z" fill="black"/>
<path d="M74.5509 64.8262H71.3096V68.0675H74.5509V64.8262Z" fill="black"/>
<path d="M77.7931 64.8262H74.5518V68.0675H77.7931V64.8262Z" fill="black"/>
<path d="M81.0343 64.8262H77.793V68.0675H81.0343V64.8262Z" fill="black"/>
<path d="M84.2756 64.8262H81.0342V68.0675H84.2756V64.8262Z" fill="black"/>
<path d="M90.758 64.8262H87.5166V68.0675H90.758V64.8262Z" fill="black"/>
<path d="M29.172 68.0684H25.9307V71.3097H29.172V68.0684Z" fill="black"/>
<path d="M32.4142 68.0684H29.1729V71.3097H32.4142V68.0684Z" fill="black"/>
<path d="M35.6554 68.0684H32.4141V71.3097H35.6554V68.0684Z" fill="black"/>
<path d="M38.8966 68.0684H35.6553V71.3097H38.8966V68.0684Z" fill="black"/>
<path d="M42.1379 68.0684H38.8965V71.3097H42.1379V68.0684Z" fill="black"/>
<path d="M51.8615 68.0684H48.6201V71.3097H51.8615V68.0684Z" fill="black"/>
<path d="M58.3449 68.0684H55.1035V71.3097H58.3449V68.0684Z" fill="black"/>
<path d="M64.8273 68.0684H61.5859V71.3097H64.8273V68.0684Z" fill="black"/>
<path d="M68.0685 68.0684H64.8271V71.3097H68.0685V68.0684Z" fill="black"/>
<path d="M81.0343 68.0684H77.793V71.3097H81.0343V68.0684Z" fill="black"/>
<path d="M84.2756 68.0684H81.0342V71.3097H84.2756V68.0684Z" fill="black"/>
<path d="M87.5168 68.0684H84.2754V71.3097H87.5168V68.0684Z" fill="black"/>
<path d="M93.9992 68.0684H90.7578V71.3097H93.9992V68.0684Z" fill="black"/>
<path d="M29.172 71.3105H25.9307V74.5519H29.172V71.3105Z" fill="black"/>
<path d="M32.4142 71.3105H29.1729V74.5519H32.4142V71.3105Z" fill="black"/>
<path d="M35.6554 71.3105H32.4141V74.5519H35.6554V71.3105Z" fill="black"/>
<path d="M38.8966 71.3105H35.6553V74.5519H38.8966V71.3105Z" fill="black"/>
<path d="M42.1379 71.3105H38.8965V74.5519H42.1379V71.3105Z" fill="black"/>
<path d="M45.3791 71.3105H42.1377V74.5519H45.3791V71.3105Z" fill="black"/>
<path d="M48.6203 71.3105H45.3789V74.5519H48.6203V71.3105Z" fill="black"/>
<path d="M51.8615 71.3105H48.6201V74.5519H51.8615V71.3105Z" fill="black"/>
<path d="M68.0685 71.3105H64.8271V74.5519H68.0685V71.3105Z" fill="black"/>
<path d="M74.5509 71.3105H71.3096V74.5519H74.5509V71.3105Z" fill="black"/>
<path d="M81.0343 71.3105H77.793V74.5519H81.0343V71.3105Z" fill="black"/>
<path d="M93.9992 71.3105H90.7578V74.5519H93.9992V71.3105Z" fill="black"/>
<path d="M35.6554 74.5527H32.4141V77.7941H35.6554V74.5527Z" fill="black"/>
<path d="M38.8966 74.5527H35.6553V77.7941H38.8966V74.5527Z" fill="black"/>
<path d="M42.1379 74.5527H38.8965V77.7941H42.1379V74.5527Z" fill="black"/>
<path d="M48.6203 74.5527H45.3789V77.7941H48.6203V74.5527Z" fill="black"/>
<path d="M51.8615 74.5527H48.6201V77.7941H51.8615V74.5527Z" fill="black"/>
<path d="M61.5861 74.5527H58.3447V77.7941H61.5861V74.5527Z" fill="black"/>
<path d="M64.8273 74.5527H61.5859V77.7941H64.8273V74.5527Z" fill="black"/>
<path d="M68.0685 74.5527H64.8271V77.7941H68.0685V74.5527Z" fill="black"/>
<path d="M81.0343 74.5527H77.793V77.7941H81.0343V74.5527Z" fill="black"/>
<path d="M32.4142 77.793H29.1729V81.0343H32.4142V77.793Z" fill="black"/>
<path d="M35.6554 77.793H32.4141V81.0343H35.6554V77.793Z" fill="black"/>
<path d="M38.8966 77.793H35.6553V81.0343H38.8966V77.793Z" fill="black"/>
<path d="M42.1379 77.793H38.8965V81.0343H42.1379V77.793Z" fill="black"/>
<path d="M45.3791 77.793H42.1377V81.0343H45.3791V77.793Z" fill="black"/>
<path d="M48.6203 77.793H45.3789V81.0343H48.6203V77.793Z" fill="black"/>
<path d="M51.8615 77.793H48.6201V81.0343H51.8615V77.793Z" fill="black"/>
<path d="M61.5861 77.793H58.3447V81.0343H61.5861V77.793Z" fill="black"/>
<path d="M64.8273 77.793H61.5859V81.0343H64.8273V77.793Z" fill="black"/>
<path d="M68.0685 77.793H64.8271V81.0343H68.0685V77.793Z" fill="black"/>
<path d="M71.3097 77.793H68.0684V81.0343H71.3097V77.793Z" fill="black"/>
<path d="M74.5509 77.793H71.3096V81.0343H74.5509V77.793Z" fill="black"/>
<path d="M77.7931 77.793H74.5518V81.0343H77.7931V77.793Z" fill="black"/>
<path d="M81.0343 77.793H77.793V81.0343H81.0343V77.793Z" fill="black"/>
<path d="M84.2756 77.793H81.0342V81.0343H84.2756V77.793Z" fill="black"/>
<path d="M90.758 77.793H87.5166V81.0343H90.758V77.793Z" fill="black"/>
<path d="M93.9992 77.793H90.7578V81.0343H93.9992V77.793Z" fill="black"/>
<path d="M32.4142 81.0332H29.1729V84.2746H32.4142V81.0332Z" fill="black"/>
<path d="M35.6554 81.0332H32.4141V84.2746H35.6554V81.0332Z" fill="black"/>
<path d="M38.8966 81.0332H35.6553V84.2746H38.8966V81.0332Z" fill="black"/>
<path d="M42.1379 81.0332H38.8965V84.2746H42.1379V81.0332Z" fill="black"/>
<path d="M45.3791 81.0332H42.1377V84.2746H45.3791V81.0332Z" fill="black"/>
<path d="M48.6203 81.0332H45.3789V84.2746H48.6203V81.0332Z" fill="black"/>
<path d="M51.8615 81.0332H48.6201V84.2746H51.8615V81.0332Z" fill="black"/>
<path d="M61.5861 81.0332H58.3447V84.2746H61.5861V81.0332Z" fill="black"/>
<path d="M68.0685 81.0332H64.8271V84.2746H68.0685V81.0332Z" fill="black"/>
<path d="M71.3097 81.0332H68.0684V84.2746H71.3097V81.0332Z" fill="black"/>
<path d="M77.7931 81.0332H74.5518V84.2746H77.7931V81.0332Z" fill="black"/>
<path d="M81.0343 81.0332H77.793V84.2746H81.0343V81.0332Z" fill="black"/>
<path d="M84.2756 81.0332H81.0342V84.2746H84.2756V81.0332Z" fill="black"/>
<path d="M87.5168 81.0332H84.2754V84.2746H87.5168V81.0332Z" fill="black"/>
<path d="M93.9992 81.0332H90.7578V84.2746H93.9992V81.0332Z" fill="black"/>
<path d="M29.172 84.2754H25.9307V87.5168H29.172V84.2754Z" fill="black"/>
<path d="M32.4142 84.2754H29.1729V87.5168H32.4142V84.2754Z" fill="black"/>
<path d="M35.6554 84.2754H32.4141V87.5168H35.6554V84.2754Z" fill="black"/>
<path d="M51.8615 84.2754H48.6201V87.5168H51.8615V84.2754Z" fill="black"/>
<path d="M61.5861 84.2754H58.3447V87.5168H61.5861V84.2754Z" fill="black"/>
<path d="M64.8273 84.2754H61.5859V87.5168H64.8273V84.2754Z" fill="black"/>
<path d="M68.0685 84.2754H64.8271V87.5168H68.0685V84.2754Z" fill="black"/>
<path d="M71.3097 84.2754H68.0684V87.5168H71.3097V84.2754Z" fill="black"/>
<path d="M81.0343 84.2754H77.793V87.5168H81.0343V84.2754Z" fill="black"/>
<path d="M90.758 84.2754H87.5166V87.5168H90.758V84.2754Z" fill="black"/>
<path d="M93.9992 84.2754H90.7578V87.5168H93.9992V84.2754Z" fill="black"/>
<path d="M32.4142 87.5156H29.1729V90.757H32.4142V87.5156Z" fill="black"/>
<path d="M38.8966 87.5156H35.6553V90.757H38.8966V87.5156Z" fill="black"/>
<path d="M42.1379 87.5156H38.8965V90.757H42.1379V87.5156Z" fill="black"/>
<path d="M48.6203 87.5156H45.3789V90.757H48.6203V87.5156Z" fill="black"/>
<path d="M55.1037 87.5156H51.8623V90.757H55.1037V87.5156Z" fill="black"/>
<path d="M64.8273 87.5156H61.5859V90.757H64.8273V87.5156Z" fill="black"/>
<path d="M68.0685 87.5156H64.8271V90.757H68.0685V87.5156Z" fill="black"/>
<path d="M71.3097 87.5156H68.0684V90.757H71.3097V87.5156Z" fill="black"/>
<path d="M74.5509 87.5156H71.3096V90.757H74.5509V87.5156Z" fill="black"/>
<path d="M77.7931 87.5156H74.5518V90.757H77.7931V87.5156Z" fill="black"/>
<path d="M81.0343 87.5156H77.793V90.757H81.0343V87.5156Z" fill="black"/>
<path d="M84.2756 87.5156H81.0342V90.757H84.2756V87.5156Z" fill="black"/>
<path d="M29.172 90.7578H25.9307V93.9992H29.172V90.7578Z" fill="black"/>
<path d="M32.4142 90.7578H29.1729V93.9992H32.4142V90.7578Z" fill="black"/>
<path d="M35.6554 90.7578H32.4141V93.9992H35.6554V90.7578Z" fill="black"/>
<path d="M42.1379 90.7578H38.8965V93.9992H42.1379V90.7578Z" fill="black"/>
<path d="M48.6203 90.7578H45.3789V93.9992H48.6203V90.7578Z" fill="black"/>
<path d="M51.8615 90.7578H48.6201V93.9992H51.8615V90.7578Z" fill="black"/>
<path d="M61.5861 90.7578H58.3447V93.9992H61.5861V90.7578Z" fill="black"/>
<path d="M68.0685 90.7578H64.8271V93.9992H68.0685V90.7578Z" fill="black"/>
<path d="M81.0343 90.7578H77.793V93.9992H81.0343V90.7578Z" fill="black"/>
<path d="M93.9992 90.7578H90.7578V93.9992H93.9992V90.7578Z" fill="black"/>
<path d="M19.2862 0H3.40344H0V3.40344V19.2862V22.6896H3.40344H19.2862H22.6896V19.2862V3.40344V0H19.2862ZM19.2862 19.2862H3.40344V3.40344H19.2862V19.2862Z" fill="black"/>
<path d="M90.5957 0H74.713H71.3096V3.40344V19.2862V22.6896H74.713H90.5957H93.9992V19.2862V3.40344V0H90.5957ZM90.5957 19.2862H74.713V3.40344H90.5957V19.2862Z" fill="black"/>
<path d="M19.2862 71.3105H3.40344H0V74.714V90.5967V94.0001H3.40344H19.2862H22.6896V90.5967V74.714V71.3105H19.2862ZM19.2862 90.5967H3.40344V74.714H19.2862V90.5967Z" fill="black"/>
<path d="M16.2065 6.48242H6.48242V16.2065H16.2065V6.48242Z" fill="black"/>
<path d="M87.5171 6.48242H77.793V16.2065H87.5171V6.48242Z" fill="black"/>
<path d="M16.2065 77.793H6.48242V87.5171H16.2065V77.793Z" fill="black"/>
</svg>
