<svg width="39" height="33" viewBox="0 0 39 33" fill="none" xmlns="http://www.w3.org/2000/svg">
<path d="M38.9699 13.1099C39.1648 12.252 38.3854 11.2226 37.4111 11.2226L26.3047 9.84996L21.2386 0.928135C21.0438 0.584987 20.8489 0.413414 20.4592 0.24184C19.485 -0.272881 18.3159 0.0702664 17.7313 0.928135L12.8601 9.84996L1.75365 11.2226C1.1691 11.2226 0.779399 11.3941 0.584549 11.7373C-0.19485 12.4236 -0.19485 13.453 0.584549 14.1393L8.57339 21.0023L6.62489 30.782C6.62489 31.1251 6.62489 31.4682 6.81974 31.8114C7.40429 32.6693 8.57339 33.0124 9.54764 32.4977L19.485 27.8652L29.4223 32.4977C29.6172 32.6693 30.0069 32.6693 30.3966 32.6693H30.7863C31.7605 32.4977 32.5399 31.6398 32.3451 30.6104L30.3966 20.8307L38.3854 13.9677C38.7751 13.7962 38.9699 13.453 38.9699 13.1099Z" fill="white"/>
</svg>
